<svg version="1.1" width="180" height="180" viewBox="0 0 180 180" xmlns="http://www.w3.org/2000/svg" xmlns:xlink="http://www.w3.org/1999/xlink"><defs xmlns="http://www.w3.org/2000/svg"><style xmlns="http://www.w3.org/1999/xhtml" type="text/css">@import url(https://fonts.googleapis.com/css?family=Bree+Serif:regular);</style></defs><g xmlns="http://www.w3.org/2000/svg" id="obj_1"><g id="obj_3" transform="matrix(1,0,0,1,1,0)" opacity="1" display="inline"><path d="M 91.7071 73.9784 C 87.9311 73.3804 92.6611 23.5513 93.2661 19.7403 L 95.4551 5.9193 C 96.0611 2.0893 99.6351 -0.5117 103.4101 0.0853 C 107.1871 0.6833 109.7821 4.2623 109.1771 8.0923 L 106.9861 21.9133 C 106.3831 25.7253 95.4831 74.5774 91.7071 73.9784 Z M 84.8781 117.1024 C 88.6521 117.7004 85.6931 156.3645 85.0891 160.1735 L 82.8991 173.9965 C 82.2931 177.8245 78.7181 180.4275 74.9421 179.8295 C 71.1661 179.2315 68.5721 175.6515 69.1781 171.8235 L 71.3671 157.9995 C 71.9711 154.1915 81.1021 116.5034 84.8781 117.1024 Z M 149.4381 54.3973 C 146.3381 56.6703 110.6961 79.7494 108.4501 76.6294 C 106.1851 73.5074 138.1951 45.3543 141.3131 43.0853 L 152.5361 34.8403 C 155.6521 32.5713 159.9831 33.2563 162.2281 36.3743 C 164.4711 39.5123 163.7791 43.8803 160.6791 46.1533 L 149.4381 54.3973 Z M 28.9151 125.5174 C 32.0161 123.2274 65.4271 104.0144 67.6721 107.1344 C 69.9371 110.2584 40.1621 134.5395 37.0411 136.8295 L 25.8171 145.0735 C 22.7001 147.3455 18.3701 146.6595 16.1251 143.5395 C 13.8801 140.4005 14.5731 136.0335 17.6731 133.7615 L 28.9151 125.5174 Z M 70.8521 87.0564 C 70.2491 90.8644 23.3311 86.6214 19.5531 86.0224 L 5.8521 83.8524 C 2.0581 83.2524 -0.5169 79.6564 0.0881 75.8474 C 0.6911 72.0364 4.2491 69.4094 8.0441 70.0114 L 21.7461 72.1824 C 25.5241 72.7794 71.4561 83.2444 70.8521 87.0564 Z M 172.5021 96.0594 C 176.2971 96.6604 178.8691 100.2574 178.2651 104.0684 C 177.6621 107.8774 174.1051 110.5014 170.3101 109.9004 L 156.6091 107.7294 C 152.8301 107.1324 105.7581 93.6274 106.3621 89.8174 C 106.9651 86.0054 155.0221 93.2904 158.8011 93.8894 L 172.5021 96.0594 Z M 42.8341 37.5123 L 34.6901 26.1993 C 32.4441 23.0793 33.1361 18.7113 36.2401 16.4203 C 39.3571 14.1523 43.6871 14.8373 45.9321 17.9553 L 54.0761 29.2693 C 56.3211 32.3873 76.4811 68.8024 73.3831 71.0764 C 70.2841 73.3484 45.0801 40.6313 42.8341 37.5123 Z M 135.5191 142.4015 L 143.6631 153.6995 C 145.9061 156.8345 145.2151 161.2025 142.1151 163.4765 C 138.9991 165.7455 134.6681 165.0605 132.4241 161.9405 L 124.2811 150.6285 C 122.0151 147.5035 99.6391 114.9634 102.7401 112.6874 C 105.8411 110.3974 133.2581 139.2625 135.5191 142.4015 Z M 96.5461 76.1184 C 93.9351 74.4864 113.1331 39.0153 114.7811 36.3763 L 120.7561 26.8143 C 122.4121 24.1653 125.8811 23.3603 128.4931 24.9923 C 131.1071 26.6253 131.9061 30.0973 130.2501 32.7463 L 124.2741 42.3093 C 122.6261 44.9473 99.1601 77.7524 96.5461 76.1184 Z M 77.9021 105.9574 C 80.5151 107.5904 66.1441 135.3385 64.4971 137.9745 L 58.5211 147.5375 C 56.8661 150.1865 53.3941 150.9925 50.7811 149.3585 C 48.1681 147.7275 47.3721 144.2545 49.0271 141.6045 L 55.0031 132.0415 C 56.6501 129.4055 75.2881 104.3244 77.9021 105.9574 Z M 145.5351 79.7724 C 142.5221 80.4814 108.8151 86.3784 108.1331 83.3594 C 107.4361 80.3284 140.0431 69.5254 143.0701 68.8234 L 153.9921 66.2414 C 157.0181 65.5394 160.0141 67.4104 160.6991 70.4314 C 161.3751 73.4644 159.4861 76.4874 156.4711 77.1974 L 145.5351 79.7724 Z M 33.7401 94.5794 C 36.7621 93.8564 67.5951 90.1254 68.2791 93.1454 C 68.9741 96.1764 39.2421 104.8134 36.2071 105.5284 L 25.2851 108.1114 C 22.2561 108.8124 19.2621 106.9414 18.5781 103.9194 C 17.9021 100.8864 19.7901 97.8634 22.8061 97.1554 L 33.7401 94.5794 Z M 76.9591 79.2534 C 75.3131 81.8894 41.8461 63.9684 39.2321 62.3354 L 29.7521 56.4103 C 27.1251 54.7703 26.3501 51.2943 27.9971 48.6583 C 29.6441 46.0203 33.1101 45.1933 35.7351 46.8333 L 45.2161 52.7583 C 47.8301 54.3913 78.6081 76.6164 76.9591 79.2534 Z M 149.5261 117.9384 C 152.1531 119.5794 152.9281 123.0564 151.2801 125.6954 C 149.6331 128.3295 146.1681 129.1555 143.5411 127.5155 L 134.0611 121.5914 C 131.4481 119.9584 109.8891 103.4954 111.5351 100.8594 C 113.1841 98.2224 137.4321 110.3814 140.0461 112.0144 L 149.5261 117.9384 Z M 71.7751 33.6803 L 69.2971 22.7253 C 68.6121 19.7033 70.5011 16.6803 73.5241 15.9593 C 76.5521 15.2573 79.5481 17.1303 80.2311 20.1493 L 82.7101 31.1063 C 83.3941 34.1273 86.8821 67.4864 83.8691 68.1964 C 80.8541 68.9084 72.4591 36.7023 71.7751 33.6803 Z M 107.5011 140.6695 L 109.9861 151.6155 C 110.6631 154.6475 108.7751 157.6685 105.7581 158.3795 C 102.7321 159.0815 99.7361 157.2095 99.0541 154.1885 L 96.5731 143.2335 C 95.8791 140.2025 89.5251 109.0174 92.5431 108.3074 C 95.5641 107.5844 106.8121 137.6295 107.5011 140.6695 Z " fill-opacity="1" fill="#ff5700" stroke="none" stroke-width="1" stroke-linecap="square" stroke-linejoin="miter"/><defs/></g></g></svg>