<svg version="1.1" width="228" height="178" viewBox="0 0 228 178" xmlns="http://www.w3.org/2000/svg" xmlns:xlink="http://www.w3.org/1999/xlink"><g xmlns="http://www.w3.org/2000/svg" id="obj_1"><g id="obj_60" transform="matrix(1,0,0,1,0,0)" opacity="1" display="inline"><path d="M 107.8 99.927 L 0 177.905 L 0 0 L 228 0 L 228 177.905 L 181.897 148.415 L 181.897 95.391 L 149.4 95.391 L 149.4 127.015 L 107.8 99.927 Z M 70.5128 7.8648 L 68.9646 17.64 C 68.5376 20.3364 65.1914 55.5778 67.8621 56.0008 C 70.5328 56.4238 78.2426 21.8735 78.6696 19.1771 L 80.2179 9.402 C 80.6458 6.6936 78.8102 4.1623 76.1385 3.7391 C 73.4688 3.3163 70.9418 5.1566 70.5128 7.8648 Z M 61.6331 126.7413 L 63.1818 116.9632 C 63.6073 114.2706 65.7019 86.9246 63.0312 86.5016 C 60.3605 86.0786 53.9033 112.7336 53.4768 115.4261 L 51.9281 125.2042 C 51.4993 127.9114 53.3338 130.4436 56.0035 130.8664 C 58.6752 131.2896 61.2044 129.4486 61.6331 126.7413 Z M 102.9469 34.1523 C 100.7409 35.7559 78.1033 55.6678 79.7045 57.8765 C 81.2918 60.0829 106.5008 43.7595 108.6942 42.1519 L 116.6452 36.3219 C 118.8367 34.7139 119.3258 31.6254 117.7405 29.4061 C 116.1512 27.1993 113.0893 26.7143 110.884 28.3201 L 102.9469 34.1523 Z M 29.1981 100.4537 C 31.4055 98.8351 52.4644 81.661 50.8624 79.4512 C 49.276 77.2448 25.6443 90.8333 23.4509 92.4531 L 15.4998 98.2841 C 13.3065 99.8908 12.8173 102.9793 14.4046 105.1989 C 15.9929 107.4066 19.0547 107.8915 21.2602 106.2847 L 29.1981 100.4537 Z M 7.139 62.9846 L 16.8302 64.5195 C 19.5019 64.9427 52.6848 67.9446 53.1114 65.2512 C 53.5385 62.5548 21.0523 55.1537 18.3796 54.7304 L 8.6894 53.1956 C 6.0058 52.7706 3.4893 54.6278 3.0623 57.3242 C 2.6357 60.0176 4.4554 62.5596 7.139 62.9846 Z M 123.4551 81.4073 C 126.1406 81.8326 128.6558 79.9772 129.0824 77.2838 C 129.5095 74.5874 127.691 72.0436 125.0055 71.6183 L 115.3153 70.0835 C 112.6426 69.6602 78.6542 64.5078 78.2283 67.2034 C 77.8004 69.8986 111.0922 79.4492 113.7649 79.8725 L 123.4551 81.4073 Z M 28.6323 15.2927 C 26.4369 16.9122 25.9476 20.0017 27.5369 22.2085 L 33.2961 30.21 C 34.8845 32.4166 52.7111 55.5562 54.9016 53.9481 C 57.0932 52.3401 42.8347 26.5845 41.247 24.38 L 35.4868 16.3784 C 33.8984 14.1717 30.8366 13.6868 28.6323 15.2927 Z M 75.6652 83.3796 C 73.4725 84.9884 89.2979 108.0044 90.8999 110.2142 L 98.8481 104.3949 C 97.2497 102.1745 77.8586 81.7597 75.6652 83.3796 Z M 84.1816 29.4071 C 83.0158 31.2728 69.4371 56.3603 71.285 57.515 C 73.1337 58.6703 89.7306 35.4687 90.8964 33.603 L 95.1225 26.8399 C 96.2936 24.9657 95.729 22.5103 93.8802 21.3551 C 92.0323 20.2004 89.5788 20.7698 88.4077 22.644 L 84.1816 29.4071 Z M 48.6179 101.2629 C 49.7826 99.3988 59.9467 79.7739 58.098 78.6187 C 56.2501 77.464 43.0678 95.2029 41.903 97.067 L 37.6759 103.8318 C 36.5053 105.7052 37.068 108.1617 38.9159 109.3164 C 40.7647 110.4716 43.2201 109.9011 44.3907 108.0277 L 48.6179 101.2629 Z M 79.4797 62.6357 C 79.962 64.7718 103.8016 60.6011 105.9347 60.0992 L 113.6681 58.2775 C 115.8004 57.7751 117.1363 55.6372 116.6579 53.4929 C 116.1734 51.3565 114.0541 50.0322 111.9148 50.529 L 104.1903 52.3552 C 102.0493 52.8509 78.9872 60.4931 79.4797 62.6357 Z M 51.292 69.5584 C 50.8089 67.4217 29.0018 70.0607 26.8643 70.5716 L 19.1299 72.3928 C 16.9974 72.8938 15.6614 75.0317 16.1401 77.1774 C 16.6241 79.3147 18.7425 80.6384 20.8841 80.1418 L 28.6086 78.3157 C 30.756 77.8098 51.784 71.7018 51.292 69.5584 Z M 30.7474 47.766 C 32.5962 48.9212 56.2669 61.5969 57.4317 59.7329 C 58.598 57.8663 36.8292 42.147 34.9804 40.9918 L 28.2757 36.8023 C 26.4185 35.6417 23.968 36.2271 22.8016 38.0937 C 21.6369 39.9577 22.1855 42.416 24.0428 43.5765 L 30.7474 47.766 Z M 109.9954 92.5784 C 111.1617 90.7118 110.6131 88.2535 108.7558 87.093 L 102.0512 82.9034 C 100.2024 81.7482 83.0523 73.1471 81.886 75.0137 C 80.7212 76.8777 95.97 88.5216 97.8187 89.6768 L 104.5234 93.8663 C 106.3806 95.0269 108.8306 94.4424 109.9954 92.5784 Z M 52.0125 19.7508 L 53.7653 27.5002 C 54.2484 29.6369 60.1863 52.4146 62.3186 51.9122 C 64.45 51.4092 61.9833 27.8149 61.4996 25.679 L 59.7454 17.93 C 59.2618 15.7941 57.1433 14.4704 55.0023 14.9661 C 52.8644 15.4757 51.5285 17.6136 52.0125 19.7508 Z M 80.7903 110.9119 L 79.0328 103.1701 C 78.5456 101.0191 70.5904 79.7695 68.4531 80.2818 C 66.3195 80.7846 70.8127 102.84 71.3041 104.9842 L 73.0579 112.7319 C 73.5402 114.868 75.6595 116.1923 77.8011 115.6957 C 79.9333 115.1933 81.2692 113.0553 80.7903 110.9119 Z " fill-opacity="1" fill="#ff5700" stroke="none" stroke-width="7" stroke-linecap="square" stroke-linejoin="miter"/><defs/></g></g></svg>