<svg version="1.1" width="16" height="16" viewBox="0 0 16 16" xmlns="http://www.w3.org/2000/svg" xmlns:xlink="http://www.w3.org/1999/xlink"><g xmlns="http://www.w3.org/2000/svg" id="obj_1"><g id="obj_3" transform="matrix(1,0,0,1,0.135,0.066)" opacity="1" display="inline"><path d="M 8.087 6.5254 C 7.755 6.4724 8.172 2.0774 8.226 1.7414 L 8.419 0.5224 C 8.472 0.1844 8.787 -0.0446 9.12 0.0074 C 9.453 0.0604 9.684 0.3754 9.629 0.7134 L 9.436 1.9344 C 9.383 2.2684 8.421 6.5774 8.087 6.5254 Z M 7.486 10.3284 C 7.818 10.3814 7.557 13.7914 7.505 14.1264 L 7.311 15.3454 C 7.257 15.6844 6.943 15.9134 6.609 15.8604 C 6.276 15.8084 6.047 15.4924 6.101 15.1544 L 6.294 13.9354 C 6.347 13.5994 7.153 10.2754 7.486 10.3284 Z M 13.18 4.7974 C 12.906 4.9984 9.763 7.0334 9.565 6.7594 C 9.366 6.4834 12.188 4.0004 12.463 3.7994 L 13.453 3.0734 C 13.728 2.8734 14.111 2.9344 14.308 3.2074 C 14.506 3.4844 14.444 3.8694 14.171 4.0704 L 13.18 4.7974 Z M 2.55 11.0704 C 2.823 10.8684 5.77 9.1744 5.968 9.4494 C 6.169 9.7244 3.542 11.8654 3.266 12.0684 L 2.278 12.7954 C 2.002 12.9954 1.619 12.9344 1.421 12.6594 C 1.224 12.3834 1.284 11.9974 1.557 11.7974 L 2.55 11.0704 Z M 6.248 7.6774 C 6.196 8.0154 2.058 7.6404 1.724 7.5874 L 0.5159 7.3964 C 0.1809 7.3424 -0.0461 7.0264 0.0079 6.6904 C 0.0609 6.3524 0.3749 6.1214 0.7089 6.1754 L 1.918 6.3664 C 2.251 6.4184 6.302 7.3414 6.248 7.6774 Z M 15.2141 8.4724 C 15.5491 8.5254 15.7761 8.8434 15.7221 9.1784 C 15.6691 9.5144 15.3561 9.7454 15.0201 9.6924 L 13.813 9.5024 C 13.479 9.4494 9.328 8.2574 9.381 7.9214 C 9.434 7.5864 13.672 8.2274 14.006 8.2824 L 15.2141 8.4724 Z M 3.777 3.3074 L 3.059 2.3114 C 2.862 2.0354 2.922 1.6494 3.195 1.4474 C 3.471 1.2484 3.853 1.3094 4.051 1.5834 L 4.769 2.5814 C 4.967 2.8554 6.744 6.0684 6.472 6.2684 C 6.199 6.4694 3.976 3.5834 3.777 3.3074 Z M 11.952 12.5594 L 12.67 13.5564 C 12.869 13.8324 12.808 14.2174 12.535 14.4184 C 12.259 14.6184 11.877 14.5584 11.679 14.2824 L 10.961 13.2844 C 10.761 13.0094 8.788 10.1394 9.062 9.9384 C 9.334 9.7374 11.752 12.2824 11.952 12.5594 Z M 8.514 6.7134 C 8.285 6.5704 9.977 3.4424 10.124 3.2074 L 10.65 2.3654 C 10.795 2.1314 11.101 2.0604 11.333 2.2044 C 11.562 2.3474 11.633 2.6544 11.487 2.8884 L 10.96 3.7314 C 10.814 3.9654 8.745 6.8574 8.514 6.7134 Z M 6.87 9.3464 C 7.101 9.4884 5.833 11.9374 5.689 12.1694 L 5.161 13.0114 C 5.015 13.2464 4.709 13.3164 4.478 13.1734 C 4.249 13.0294 4.178 12.7234 4.324 12.4884 L 4.85 11.6454 C 4.996 11.4134 6.64 9.2004 6.87 9.3464 Z M 12.836 7.0354 C 12.569 7.0984 9.596 7.6184 9.536 7.3524 C 9.475 7.0844 12.351 6.1334 12.619 6.0704 L 13.58 5.8424 C 13.848 5.7804 14.113 5.9464 14.172 6.2124 C 14.232 6.4784 14.066 6.7464 13.8 6.8094 L 12.836 7.0354 Z M 2.975 8.3424 C 3.243 8.2784 5.962 7.9484 6.022 8.2154 C 6.083 8.4834 3.461 9.2454 3.193 9.3074 L 2.23 9.5364 C 1.962 9.5974 1.699 9.4324 1.639 9.1654 C 1.58 8.8984 1.745 8.6304 2.01 8.5694 L 2.975 8.3424 Z M 6.788 6.9904 C 6.643 7.2224 3.69 5.6414 3.459 5.4984 L 2.623 4.9764 C 2.392 4.8304 2.324 4.5254 2.469 4.2914 C 2.615 4.0584 2.921 3.9854 3.152 4.1304 L 3.988 4.6534 C 4.218 4.7974 6.932 6.7574 6.788 6.9904 Z M 13.188 10.4014 C 13.419 10.5464 13.488 10.8534 13.342 11.0854 C 13.196 11.3184 12.891 11.3914 12.66 11.2474 L 11.822 10.7234 C 11.594 10.5804 9.692 9.1284 9.837 8.8964 C 9.981 8.6624 12.121 9.7364 12.351 9.8794 L 13.188 10.4014 Z M 6.33 2.9704 L 6.112 2.0044 C 6.051 1.7384 6.218 1.4714 6.484 1.4074 C 6.751 1.3444 7.016 1.5114 7.075 1.7774 L 7.295 2.7444 C 7.355 3.0104 7.662 5.9524 7.397 6.0144 C 7.13 6.0774 6.391 3.2374 6.33 2.9704 Z M 9.482 12.4064 L 9.7 13.3714 C 9.76 13.6384 9.593 13.9064 9.328 13.9694 C 9.061 14.0314 8.796 13.8654 8.736 13.5994 L 8.517 12.6334 C 8.455 12.3664 7.895 9.6144 8.163 9.5534 C 8.428 9.4884 9.419 12.1394 9.482 12.4064 Z " fill-opacity="1" fill="#000000" stroke="none" stroke-width="1" stroke-linecap="square" stroke-linejoin="miter"/><defs/></g></g></svg>