<svg version="1.1" width="820" height="230" viewBox="0 0 820 230" xmlns="http://www.w3.org/2000/svg" xmlns:xlink="http://www.w3.org/1999/xlink"><defs xmlns="http://www.w3.org/2000/svg"><style xmlns="http://www.w3.org/1999/xhtml" type="text/css">@import url(https://fonts.googleapis.com/css?family=Bree+Serif:regular);</style></defs><g xmlns="http://www.w3.org/2000/svg" id="obj_1"><g id="obj_60" transform="matrix(1,0,0,1,3.103,22.427)" opacity="1" display="inline"><path d="M 107.8 99.927 L 0 177.905 L 0 0 L 228 0 L 228 177.905 L 181.897 148.415 L 181.897 95.391 L 149.4 95.391 L 149.4 127.015 L 107.8 99.927 Z M 70.5128 7.8648 L 68.9646 17.64 C 68.5376 20.3364 65.1914 55.5778 67.8621 56.0008 C 70.5328 56.4238 78.2426 21.8735 78.6696 19.1771 L 80.2179 9.402 C 80.6458 6.6936 78.8102 4.1623 76.1385 3.7391 C 73.4688 3.3163 70.9418 5.1566 70.5128 7.8648 Z M 61.6331 126.7413 L 63.1818 116.9632 C 63.6073 114.2706 65.7019 86.9246 63.0312 86.5016 C 60.3605 86.0786 53.9033 112.7336 53.4768 115.4261 L 51.9281 125.2042 C 51.4993 127.9114 53.3338 130.4436 56.0035 130.8664 C 58.6752 131.2896 61.2044 129.4486 61.6331 126.7413 Z M 102.9469 34.1523 C 100.7409 35.7559 78.1033 55.6678 79.7045 57.8765 C 81.2918 60.0829 106.5008 43.7595 108.6942 42.1519 L 116.6452 36.3219 C 118.8367 34.7139 119.3258 31.6254 117.7405 29.4061 C 116.1512 27.1993 113.0893 26.7143 110.884 28.3201 L 102.9469 34.1523 Z M 29.1981 100.4537 C 31.4055 98.8351 52.4644 81.661 50.8624 79.4512 C 49.276 77.2448 25.6443 90.8333 23.4509 92.4531 L 15.4998 98.2841 C 13.3065 99.8908 12.8173 102.9793 14.4046 105.1989 C 15.9929 107.4066 19.0547 107.8915 21.2602 106.2847 L 29.1981 100.4537 Z M 7.139 62.9846 L 16.8302 64.5195 C 19.5019 64.9427 52.6848 67.9446 53.1114 65.2512 C 53.5385 62.5548 21.0523 55.1537 18.3796 54.7304 L 8.6894 53.1956 C 6.0058 52.7706 3.4893 54.6278 3.0623 57.3242 C 2.6357 60.0176 4.4554 62.5596 7.139 62.9846 Z M 123.4551 81.4073 C 126.1406 81.8326 128.6558 79.9772 129.0824 77.2838 C 129.5095 74.5874 127.691 72.0436 125.0055 71.6183 L 115.3153 70.0835 C 112.6426 69.6602 78.6542 64.5078 78.2283 67.2034 C 77.8004 69.8986 111.0922 79.4492 113.7649 79.8725 L 123.4551 81.4073 Z M 28.6323 15.2927 C 26.4369 16.9122 25.9476 20.0017 27.5369 22.2085 L 33.2961 30.21 C 34.8845 32.4166 52.7111 55.5562 54.9016 53.9481 C 57.0932 52.3401 42.8347 26.5845 41.247 24.38 L 35.4868 16.3784 C 33.8984 14.1717 30.8366 13.6868 28.6323 15.2927 Z M 75.6652 83.3796 C 73.4725 84.9884 89.2979 108.0044 90.8999 110.2142 L 98.8481 104.3949 C 97.2497 102.1745 77.8586 81.7597 75.6652 83.3796 Z M 84.1816 29.4071 C 83.0158 31.2728 69.4371 56.3603 71.285 57.515 C 73.1337 58.6703 89.7306 35.4687 90.8964 33.603 L 95.1225 26.8399 C 96.2936 24.9657 95.729 22.5103 93.8802 21.3551 C 92.0323 20.2004 89.5788 20.7698 88.4077 22.644 L 84.1816 29.4071 Z M 48.6179 101.2629 C 49.7826 99.3988 59.9467 79.7739 58.098 78.6187 C 56.2501 77.464 43.0678 95.2029 41.903 97.067 L 37.6759 103.8318 C 36.5053 105.7052 37.068 108.1617 38.9159 109.3164 C 40.7647 110.4716 43.2201 109.9011 44.3907 108.0277 L 48.6179 101.2629 Z M 79.4797 62.6357 C 79.962 64.7718 103.8016 60.6011 105.9347 60.0992 L 113.6681 58.2775 C 115.8004 57.7751 117.1363 55.6372 116.6579 53.4929 C 116.1734 51.3565 114.0541 50.0322 111.9148 50.529 L 104.1903 52.3552 C 102.0493 52.8509 78.9872 60.4931 79.4797 62.6357 Z M 51.292 69.5584 C 50.8089 67.4217 29.0018 70.0607 26.8643 70.5716 L 19.1299 72.3928 C 16.9974 72.8938 15.6614 75.0317 16.1401 77.1774 C 16.6241 79.3147 18.7425 80.6384 20.8841 80.1418 L 28.6086 78.3157 C 30.756 77.8098 51.784 71.7018 51.292 69.5584 Z M 30.7474 47.766 C 32.5962 48.9212 56.2669 61.5969 57.4317 59.7329 C 58.598 57.8663 36.8292 42.147 34.9804 40.9918 L 28.2757 36.8023 C 26.4185 35.6417 23.968 36.2271 22.8016 38.0937 C 21.6369 39.9577 22.1855 42.416 24.0428 43.5765 L 30.7474 47.766 Z M 109.9954 92.5784 C 111.1617 90.7118 110.6131 88.2535 108.7558 87.093 L 102.0512 82.9034 C 100.2024 81.7482 83.0523 73.1471 81.886 75.0137 C 80.7212 76.8777 95.97 88.5216 97.8187 89.6768 L 104.5234 93.8663 C 106.3806 95.0269 108.8306 94.4424 109.9954 92.5784 Z M 52.0125 19.7508 L 53.7653 27.5002 C 54.2484 29.6369 60.1863 52.4146 62.3186 51.9122 C 64.45 51.4092 61.9833 27.8149 61.4996 25.679 L 59.7454 17.93 C 59.2618 15.7941 57.1433 14.4704 55.0023 14.9661 C 52.8644 15.4757 51.5285 17.6136 52.0125 19.7508 Z M 80.7903 110.9119 L 79.0328 103.1701 C 78.5456 101.0191 70.5904 79.7695 68.4531 80.2818 C 66.3195 80.7846 70.8127 102.84 71.3041 104.9842 L 73.0579 112.7319 C 73.5402 114.868 75.6595 116.1923 77.8011 115.6957 C 79.9333 115.1933 81.2692 113.0553 80.7903 110.9119 Z " fill-opacity="1" fill="#FFFFFF" stroke="none" stroke-width="7" stroke-linecap="square" stroke-linejoin="miter"/><defs/></g><g id="obj_59" transform="matrix(1,0,0,1,286.353,2.532)" opacity="1" display="inline"><path d="M 42.669 15.642 C 41.943 14.388 39.237 13.761 34.551 13.761 C 28.413 13.761 23.76 15.84 20.592 19.998 C 17.424 24.156 15.84 30.162 15.84 38.016 C 15.84 54.318 21.945 62.469 34.155 62.469 C 34.353 62.469 35.228 62.469 36.779 62.469 C 38.33 62.469 39.798 62.254 41.184 61.825 C 42.57 61.396 43.395 60.951 43.659 60.489 C 43.923 60.027 44.055 59.301 44.055 58.311 L 44.055 50.391 L 54.153 51.084 L 54.153 68.211 C 49.005 70.917 42.471 72.27 34.551 72.27 C 24.453 72.27 16.748 69.432 11.435 63.756 C 6.122 58.08 3.465 49.632 3.465 38.412 C 3.465 32.208 4.356 26.796 6.138 22.176 C 7.92 17.556 10.329 13.959 13.365 11.385 C 19.305 6.435 26.367 3.96 34.551 3.96 C 41.151 3.96 47.355 5.313 53.163 8.019 L 53.163 24.849 L 43.065 25.542 L 43.065 17.82 C 43.065 16.83 42.933 16.104 42.669 15.642 Z M 87.219 19.701 C 92.169 19.701 96.096 20.905 99 23.314 C 101.904 25.723 103.356 29.106 103.356 33.462 C 103.356 36.366 102.729 38.923 101.475 41.134 C 100.221 43.345 98.67 45.078 96.822 46.332 C 94.974 47.586 92.73 48.609 90.09 49.401 C 85.668 50.721 80.685 51.381 75.141 51.381 C 75.339 54.879 76.428 57.7 78.408 59.845 C 80.388 61.99 83.424 63.063 87.516 63.063 C 91.608 63.063 95.7 61.611 99.792 58.707 L 103.554 66.726 C 102.234 67.914 100.007 69.135 96.872 70.389 C 93.737 71.643 90.156 72.27 86.13 72.27 C 78.078 72.27 72.171 70.042 68.409 65.587 C 64.647 61.132 62.766 55.011 62.766 47.223 C 62.766 39.435 64.911 32.901 69.201 27.621 C 73.491 22.341 79.497 19.701 87.219 19.701 M 82.715 42.322 C 82.715 42.322 83.317 42.215 84.521 42.001 C 85.726 41.786 87.351 40.936 89.397 39.451 C 91.443 37.966 92.466 36.201 92.466 34.155 C 92.466 30.129 90.486 28.116 86.526 28.116 C 82.83 28.116 79.992 29.584 78.012 32.521 C 76.032 35.458 74.943 38.973 74.745 43.065 C 77.649 42.999 80.306 42.751 82.715 42.322 Z M 128.007 0.396 L 128.007 62.766 L 133.65 63.063 L 133.65 70.983 L 110.088 70.983 L 110.088 63.459 L 113.355 63.162 C 115.269 62.964 116.226 61.908 116.226 59.994 L 116.226 11.187 C 116.226 9.735 115.401 8.943 113.751 8.811 L 110.286 8.613 L 110.286 0.396 L 128.007 0.396 Z M 164.637 19.701 C 169.587 19.701 173.514 20.905 176.418 23.314 C 179.322 25.723 180.774 29.106 180.774 33.462 C 180.774 36.366 180.147 38.923 178.893 41.134 C 177.639 43.345 176.088 45.078 174.24 46.332 C 172.392 47.586 170.148 48.609 167.508 49.401 C 163.086 50.721 158.103 51.381 152.559 51.381 C 152.757 54.879 153.846 57.7 155.826 59.845 C 157.806 61.99 160.842 63.063 164.934 63.063 C 169.026 63.063 173.118 61.611 177.21 58.707 L 180.972 66.726 C 179.652 67.914 177.425 69.135 174.29 70.389 C 171.155 71.643 167.574 72.27 163.548 72.27 C 155.496 72.27 149.589 70.042 145.827 65.587 C 142.065 61.132 140.184 55.011 140.184 47.223 C 140.184 39.435 142.329 32.901 146.619 27.621 C 150.909 22.341 156.915 19.701 164.637 19.701 M 160.133 42.322 C 160.133 42.322 160.735 42.215 161.939 42.001 C 163.144 41.786 164.769 40.936 166.815 39.451 C 168.861 37.966 169.884 36.201 169.884 34.155 C 169.884 30.129 167.904 28.116 163.944 28.116 C 160.248 28.116 157.41 29.584 155.43 32.521 C 153.45 35.458 152.361 38.973 152.163 43.065 C 155.067 42.999 157.724 42.751 160.133 42.322 Z M 192.06 68.013 L 192.06 11.187 C 192.06 9.669 191.235 8.877 189.585 8.811 L 186.12 8.613 L 186.12 0.396 L 203.544 0.396 L 203.544 23.859 C 206.514 21.087 210.507 19.701 215.523 19.701 C 221.727 19.701 226.644 21.796 230.274 25.987 C 233.904 30.178 235.719 36.069 235.719 43.659 C 235.719 62.733 227.733 72.27 211.761 72.27 C 208.329 72.27 204.716 71.858 200.921 71.033 C 197.126 70.207 194.172 69.201 192.06 68.013 M 203.544 35.937 L 203.544 61.578 C 206.052 62.898 208.956 63.558 212.256 63.558 C 219.78 63.558 223.542 57.453 223.542 45.243 C 223.542 34.089 219.846 28.512 212.454 28.512 C 210.078 28.512 207.999 29.205 206.217 30.591 C 204.435 31.977 203.544 33.759 203.544 35.937 Z M 248.886 59.895 L 248.886 32.472 C 248.886 31.416 248.705 30.673 248.342 30.244 C 247.979 29.815 247.335 29.568 246.411 29.502 L 242.253 29.205 L 242.253 21.186 L 258.984 21.186 L 258.984 28.611 C 260.172 26.037 262.02 23.908 264.528 22.225 C 267.036 20.542 269.924 19.701 273.191 19.701 C 276.458 19.701 279.576 20.427 282.546 21.879 L 282.546 36.63 L 273.339 37.323 L 273.339 32.769 C 273.339 31.449 273.009 30.624 272.349 30.294 C 271.623 29.964 270.732 29.799 269.676 29.799 C 267.036 29.799 264.875 30.739 263.192 32.62 C 261.509 34.501 260.667 36.894 260.667 39.798 L 260.667 62.766 L 269.28 63.162 L 269.28 70.983 L 242.748 70.983 L 242.748 63.459 L 246.015 63.162 C 247.005 63.03 247.731 62.749 248.193 62.32 C 248.655 61.891 248.886 61.083 248.886 59.895 Z M 332.937 23.166 L 332.937 59.994 C 332.937 61.05 333.119 61.776 333.482 62.172 C 333.845 62.568 334.488 62.799 335.412 62.865 L 338.58 63.063 L 338.58 70.983 L 322.839 70.983 L 322.839 65.241 L 322.542 65.142 C 319.242 69.894 314.721 72.27 308.979 72.27 C 302.247 72.27 297.264 70.125 294.03 65.835 C 290.796 61.545 289.179 55.671 289.179 48.213 C 289.179 39.237 291.357 32.241 295.713 27.225 C 300.069 22.209 306.603 19.701 315.315 19.701 C 320.925 19.701 326.799 20.856 332.937 23.166 M 321.453 55.242 L 321.453 29.601 C 319.605 28.743 317.064 28.314 313.83 28.314 C 309.408 28.314 306.207 30.096 304.227 33.66 C 302.247 37.224 301.257 41.943 301.257 47.817 C 301.257 58.509 304.689 63.855 311.553 63.855 C 314.457 63.855 316.833 62.981 318.681 61.231 C 320.529 59.482 321.453 57.486 321.453 55.242 Z M 355.608 10.692 L 362.043 10.692 L 362.043 21.186 L 375.21 21.186 L 374.22 29.502 L 362.043 29.502 L 362.043 55.539 C 362.043 58.443 362.571 60.472 363.627 61.627 C 364.683 62.782 366.317 63.36 368.528 63.36 C 370.739 63.36 372.966 62.667 375.21 61.281 L 378.18 68.904 C 374.88 71.214 370.689 72.369 365.607 72.369 C 362.637 72.369 360.129 71.99 358.083 71.231 C 356.037 70.471 354.519 69.63 353.529 68.706 C 352.539 67.782 351.78 66.429 351.252 64.647 C 350.724 62.865 350.427 61.462 350.361 60.439 C 350.295 59.416 350.262 57.915 350.262 55.935 L 350.262 29.502 L 343.233 29.502 L 344.223 22.275 C 347.325 22.011 349.668 20.905 351.252 18.958 C 352.836 17.011 354.288 14.256 355.608 10.692 Z M 399.861 21.186 L 399.861 62.766 L 405.504 63.063 L 405.504 70.983 L 381.942 70.983 L 381.942 63.459 L 385.209 63.162 C 387.123 62.964 388.08 61.908 388.08 59.994 L 388.08 32.472 C 388.08 31.35 387.899 30.591 387.536 30.195 C 387.173 29.799 386.529 29.601 385.605 29.601 L 382.14 29.403 L 382.14 21.186 L 399.861 21.186 M 387.387 12.622 C 387.387 12.622 387.041 12.284 386.348 11.608 C 385.655 10.931 385.308 9.537 385.308 7.425 C 385.308 5.313 386.001 3.547 387.387 2.128 C 388.773 0.709 390.588 0 392.832 0 C 395.076 0 396.908 0.709 398.327 2.128 C 399.746 3.547 400.455 5.313 400.455 7.425 C 400.455 9.537 399.746 11.269 398.327 12.622 C 396.908 13.975 395.076 14.652 392.832 14.652 C 390.588 14.652 388.773 13.975 387.387 12.622 Z M 434.016 63.756 C 441.21 63.756 444.807 57.948 444.807 46.332 C 444.807 40.458 443.999 36.003 442.382 32.967 C 440.765 29.931 438.059 28.413 434.264 28.413 C 430.469 28.413 427.68 29.865 425.898 32.769 C 424.116 35.673 423.225 39.633 423.225 44.649 C 423.225 53.955 424.941 59.796 428.373 62.172 C 429.891 63.228 431.772 63.756 434.016 63.756 M 411.246 46.035 C 411.246 41.151 411.972 36.91 413.424 33.313 C 414.876 29.716 416.823 26.961 419.265 25.047 C 423.951 21.483 429.132 19.701 434.808 19.701 C 438.768 19.701 442.118 20.344 444.857 21.631 C 447.596 22.918 449.741 24.403 451.292 26.086 C 452.843 27.769 454.163 30.211 455.252 33.412 C 456.341 36.613 456.885 40.392 456.885 44.748 C 456.885 53.856 454.674 60.753 450.252 65.439 C 445.83 70.125 440.171 72.468 433.274 72.468 C 426.377 72.468 420.981 70.24 417.087 65.785 C 413.193 61.33 411.246 54.747 411.246 46.035 Z M 462.924 29.106 L 462.924 21.186 L 479.655 21.186 L 479.655 27.621 C 481.371 25.179 483.648 23.248 486.486 21.829 C 489.324 20.41 492.393 19.701 495.693 19.701 C 500.709 19.701 504.587 21.136 507.326 24.007 C 510.065 26.878 511.434 31.185 511.434 36.927 L 511.434 62.766 L 517.077 63.063 L 517.077 70.983 L 493.515 70.983 L 493.515 63.459 L 496.782 63.162 C 497.772 63.03 498.498 62.749 498.96 62.32 C 499.422 61.891 499.653 61.083 499.653 59.895 L 499.653 39.501 C 499.653 35.871 499.092 33.181 497.97 31.432 C 496.848 29.683 494.72 28.809 491.585 28.809 C 488.45 28.809 485.958 29.799 484.11 31.779 C 482.262 33.759 481.338 36.102 481.338 38.808 L 481.338 62.766 L 486.981 63.063 L 486.981 70.983 L 463.419 70.983 L 463.419 63.459 L 466.686 63.162 C 467.676 63.03 468.402 62.749 468.864 62.32 C 469.326 61.891 469.557 61.083 469.557 59.895 L 469.557 32.472 C 469.557 30.492 468.732 29.469 467.082 29.403 L 462.924 29.106 Z M 6.237 194.337 L 22.176 148.203 L 15.939 147.609 L 15.939 139.59 L 38.61 139.59 L 58.806 196.713 L 58.905 196.713 L 64.548 197.01 L 64.548 205.425 L 39.006 205.425 L 39.006 197.406 L 42.768 197.109 C 43.89 196.977 44.649 196.713 45.045 196.317 C 45.441 195.921 45.474 195.195 45.144 194.139 L 43.065 188.001 L 19.899 188.001 L 16.929 196.713 L 22.869 197.01 L 22.869 205.425 L 0 205.425 L 0 197.406 L 3.267 197.109 C 4.653 196.977 5.643 196.053 6.237 194.337 M 31.482 150.678 L 22.275 178.893 L 40.689 178.893 L 31.779 150.678 L 31.482 150.678 Z M 73.854 214.83 L 73.854 166.914 C 73.854 165.792 73.672 165.017 73.309 164.588 C 72.946 164.159 72.303 163.944 71.379 163.944 L 67.221 163.647 L 67.221 155.628 L 83.952 155.628 L 83.952 162.063 C 85.008 160.083 86.922 158.268 89.694 156.618 C 92.466 154.968 95.766 154.143 99.594 154.143 C 111.54 154.143 117.513 162.525 117.513 179.289 C 117.513 188.199 115.566 195.03 111.672 199.782 C 107.778 204.534 102.498 206.91 95.832 206.91 C 91.872 206.91 88.341 205.953 85.239 204.039 L 85.239 217.701 L 93.258 218.097 L 93.258 225.918 L 67.716 225.918 L 67.716 218.394 L 70.983 218.097 C 71.973 217.965 72.699 217.685 73.161 217.256 C 73.623 216.827 73.854 216.018 73.854 214.83 M 105.237 180.279 C 105.237 169.257 101.904 163.746 95.238 163.746 C 92.466 163.746 90.107 164.588 88.16 166.271 C 86.213 167.954 85.239 169.95 85.239 172.26 L 85.239 195.03 C 87.747 196.68 90.8 197.505 94.397 197.505 C 97.994 197.505 100.7 195.855 102.515 192.555 C 104.33 189.255 105.237 185.163 105.237 180.279 Z M 168.993 157.608 L 168.993 194.436 C 168.993 195.492 169.175 196.218 169.538 196.614 C 169.901 197.01 170.544 197.241 171.468 197.307 L 174.636 197.505 L 174.636 205.425 L 158.895 205.425 L 158.895 199.683 L 158.598 199.584 C 155.298 204.336 150.777 206.712 145.035 206.712 C 138.303 206.712 133.32 204.567 130.086 200.277 C 126.852 195.987 125.235 190.113 125.235 182.655 C 125.235 173.679 127.413 166.683 131.769 161.667 C 136.125 156.651 142.659 154.143 151.371 154.143 C 156.981 154.143 162.855 155.298 168.993 157.608 M 157.509 189.684 L 157.509 164.043 C 155.661 163.185 153.12 162.756 149.886 162.756 C 145.464 162.756 142.263 164.538 140.283 168.102 C 138.303 171.666 137.313 176.385 137.313 182.259 C 137.313 192.951 140.745 198.297 147.609 198.297 C 150.513 198.297 152.889 197.423 154.737 195.674 C 156.585 193.925 157.509 191.928 157.509 189.684 Z M 186.813 194.337 L 186.813 166.914 C 186.813 165.858 186.632 165.116 186.269 164.687 C 185.906 164.258 185.262 164.01 184.338 163.944 L 180.18 163.647 L 180.18 155.628 L 196.911 155.628 L 196.911 163.053 C 198.099 160.479 199.947 158.351 202.455 156.668 C 204.963 154.985 207.851 154.143 211.117 154.143 C 214.384 154.143 217.503 154.869 220.473 156.321 L 220.473 171.072 L 211.266 171.765 L 211.266 167.211 C 211.266 165.891 210.936 165.066 210.276 164.736 C 209.55 164.406 208.659 164.241 207.603 164.241 C 204.963 164.241 202.802 165.182 201.119 167.063 C 199.436 168.944 198.594 171.336 198.594 174.24 L 198.594 197.208 L 207.207 197.604 L 207.207 205.425 L 180.675 205.425 L 180.675 197.901 L 183.942 197.604 C 184.932 197.472 185.658 197.192 186.12 196.763 C 186.582 196.334 186.813 195.525 186.813 194.337 Z M 237.402 145.134 L 243.837 145.134 L 243.837 155.628 L 257.004 155.628 L 256.014 163.944 L 243.837 163.944 L 243.837 189.981 C 243.837 192.885 244.365 194.915 245.421 196.07 C 246.477 197.225 248.111 197.802 250.322 197.802 C 252.532 197.802 254.76 197.109 257.004 195.723 L 259.974 203.346 C 256.674 205.656 252.483 206.811 247.401 206.811 C 244.431 206.811 241.923 206.432 239.877 205.673 C 237.831 204.914 236.313 204.072 235.323 203.148 C 234.333 202.224 233.574 200.871 233.046 199.089 C 232.518 197.307 232.221 195.905 232.155 194.882 C 232.089 193.859 232.056 192.357 232.056 190.377 L 232.056 163.944 L 225.027 163.944 L 226.017 156.717 C 229.119 156.453 231.462 155.348 233.046 153.401 C 234.63 151.454 236.082 148.698 237.402 145.134 Z M 263.142 163.647 L 263.142 155.628 L 279.873 155.628 L 279.873 162.063 C 283.569 156.783 288.635 154.143 295.07 154.143 C 301.505 154.143 305.844 156.783 308.088 162.063 C 311.784 156.783 316.8 154.143 323.136 154.143 C 327.888 154.143 331.551 155.579 334.125 158.45 C 336.699 161.32 337.986 165.627 337.986 171.369 L 337.986 197.208 L 343.629 197.505 L 343.629 205.425 L 320.067 205.425 L 320.067 197.901 L 323.334 197.604 C 324.324 197.472 325.034 197.192 325.463 196.763 C 325.892 196.334 326.139 195.558 326.205 194.436 L 326.205 173.943 C 326.205 170.313 325.792 167.624 324.968 165.875 C 324.143 164.126 322.212 163.251 319.176 163.251 C 316.14 163.251 313.814 164.175 312.197 166.023 C 310.58 167.871 309.771 170.346 309.771 173.448 L 309.771 197.208 L 315.216 197.505 L 315.216 205.425 L 291.852 205.425 L 291.852 197.901 L 295.119 197.604 C 296.109 197.472 296.835 197.192 297.297 196.763 C 297.759 196.334 297.99 195.525 297.99 194.337 L 297.99 173.943 C 297.99 170.313 297.578 167.624 296.753 165.875 C 295.928 164.126 293.981 163.251 290.912 163.251 C 287.843 163.251 285.516 164.208 283.932 166.122 C 282.348 168.036 281.556 170.412 281.556 173.25 L 281.556 197.208 L 286.902 197.505 L 286.902 205.425 L 263.538 205.425 L 263.538 197.901 L 266.805 197.604 C 267.795 197.472 268.521 197.192 268.983 196.763 C 269.445 196.334 269.676 195.525 269.676 194.337 L 269.775 194.337 L 269.775 167.013 C 269.775 165.891 269.594 165.116 269.231 164.687 C 268.868 164.258 268.224 164.01 267.3 163.944 L 263.142 163.647 Z M 374.319 154.143 C 379.269 154.143 383.196 155.348 386.1 157.757 C 389.004 160.166 390.456 163.548 390.456 167.904 C 390.456 170.808 389.829 173.366 388.575 175.577 C 387.321 177.788 385.77 179.52 383.922 180.774 C 382.074 182.028 379.83 183.051 377.19 183.843 C 372.768 185.163 367.785 185.823 362.241 185.823 C 362.439 189.321 363.528 192.143 365.508 194.288 C 367.488 196.433 370.524 197.505 374.616 197.505 C 378.708 197.505 382.8 196.053 386.892 193.149 L 390.654 201.168 C 389.334 202.356 387.107 203.577 383.972 204.831 C 380.837 206.085 377.256 206.712 373.23 206.712 C 365.178 206.712 359.271 204.485 355.509 200.03 C 351.747 195.575 349.866 189.453 349.866 181.665 C 349.866 173.877 352.011 167.343 356.301 162.063 C 360.591 156.783 366.597 154.143 374.319 154.143 M 369.814 176.765 C 369.814 176.765 370.417 176.657 371.621 176.443 C 372.826 176.228 374.451 175.379 376.497 173.894 C 378.543 172.409 379.566 170.643 379.566 168.597 C 379.566 164.571 377.586 162.558 373.626 162.558 C 369.93 162.558 367.092 164.027 365.112 166.964 C 363.132 169.901 362.043 173.415 361.845 177.507 C 364.749 177.441 367.405 177.194 369.814 176.765 Z M 396.792 163.548 L 396.792 155.628 L 413.523 155.628 L 413.523 162.063 C 415.239 159.621 417.516 157.691 420.354 156.272 C 423.192 154.853 426.261 154.143 429.561 154.143 C 434.577 154.143 438.455 155.579 441.194 158.45 C 443.932 161.32 445.302 165.627 445.302 171.369 L 445.302 197.208 L 450.945 197.505 L 450.945 205.425 L 427.383 205.425 L 427.383 197.901 L 430.65 197.604 C 431.64 197.472 432.366 197.192 432.828 196.763 C 433.29 196.334 433.521 195.525 433.521 194.337 L 433.521 173.943 C 433.521 170.313 432.96 167.624 431.838 165.875 C 430.716 164.126 428.588 163.251 425.453 163.251 C 422.318 163.251 419.826 164.241 417.978 166.221 C 416.13 168.201 415.206 170.544 415.206 173.25 L 415.206 197.208 L 420.849 197.505 L 420.849 205.425 L 397.287 205.425 L 397.287 197.901 L 400.554 197.604 C 401.544 197.472 402.27 197.192 402.732 196.763 C 403.194 196.334 403.425 195.525 403.425 194.337 L 403.425 166.914 C 403.425 164.934 402.6 163.911 400.95 163.845 L 396.792 163.548 Z M 467.775 145.134 L 474.21 145.134 L 474.21 155.628 L 487.377 155.628 L 486.387 163.944 L 474.21 163.944 L 474.21 189.981 C 474.21 192.885 474.738 194.915 475.794 196.07 C 476.85 197.225 478.484 197.802 480.695 197.802 C 482.906 197.802 485.133 197.109 487.377 195.723 L 490.347 203.346 C 487.047 205.656 482.856 206.811 477.774 206.811 C 474.804 206.811 472.296 206.432 470.25 205.673 C 468.204 204.914 466.686 204.072 465.696 203.148 C 464.706 202.224 463.947 200.871 463.419 199.089 C 462.891 197.307 462.594 195.905 462.528 194.882 C 462.462 193.859 462.429 192.357 462.429 190.377 L 462.429 163.944 L 455.4 163.944 L 456.39 156.717 C 459.492 156.453 461.835 155.348 463.419 153.401 C 465.003 151.454 466.455 148.698 467.775 145.134 Z M 520.047 163.152 C 518.463 162.558 516.549 162.261 514.305 162.261 C 512.061 162.261 510.263 162.773 508.91 163.796 C 507.557 164.819 506.88 166.073 506.88 167.558 C 506.88 169.043 507.128 170.198 507.623 171.023 C 508.118 171.848 508.893 172.557 509.949 173.151 C 511.599 174.009 513.579 174.752 515.889 175.379 C 518.199 176.006 519.915 176.501 521.037 176.864 C 522.159 177.227 523.562 177.837 525.245 178.695 C 526.928 179.553 528.198 180.477 529.056 181.467 C 531.366 183.909 532.521 187.044 532.521 190.872 C 532.521 195.822 530.723 199.7 527.126 202.505 C 523.529 205.31 518.958 206.712 513.414 206.712 C 505.362 206.712 499.29 205.689 495.198 203.643 L 495.198 189.882 L 504.108 189.189 L 504.108 193.941 C 504.108 196.845 506.88 198.297 512.424 198.297 C 517.968 198.297 520.74 196.284 520.74 192.258 C 520.74 190.806 520.261 189.618 519.304 188.694 C 518.348 187.77 517.407 187.143 516.483 186.813 C 515.559 186.483 514.453 186.153 513.166 185.823 C 511.88 185.493 510.626 185.163 509.405 184.833 C 508.184 184.503 506.864 184.058 505.445 183.497 C 504.025 182.936 502.458 182.127 500.742 181.071 C 497.376 178.893 495.693 175.247 495.693 170.132 C 495.693 165.017 497.508 161.073 501.138 158.301 C 504.768 155.529 509.339 154.143 514.85 154.143 C 520.361 154.143 525.822 155.463 531.234 158.103 L 531.234 169.983 L 522.324 170.676 L 522.324 166.518 C 522.324 164.868 521.565 163.746 520.047 163.152 Z " fill-opacity="1" fill="#FFFFFF" stroke="none" stroke-width="1" stroke-linecap="square" stroke-linejoin="miter"/><defs/></g></g></svg>